<svg width="105" height="32" viewBox="0 0 105 32" fill="none" xmlns="http://www.w3.org/2000/svg">
<path d="M6.79237 10.8039C7.47072 9.61111 9.19019 9.61201 9.86729 10.8055L10.6116 12.1175C10.9111 12.6454 10.9188 13.2901 10.6321 13.8251L6.35058 21.8148C6.04274 22.3893 5.44384 22.7478 4.79209 22.7478L3.03965 22.7478C1.68364 22.7478 0.832307 21.2843 1.50264 20.1056L6.79237 10.8039Z" fill="#FF005C"/>
<path d="M19.4754 12.195C20.116 13.3732 19.2631 14.8078 17.922 14.8078L16.2526 14.8078C15.6099 14.8078 15.0177 14.4589 14.7061 13.8967L10.2626 5.87967C9.95193 5.31907 9.96893 4.6342 10.3071 4.0897L11.2423 2.5837C11.9577 1.43174 13.6501 1.48062 14.2978 2.67194L19.4754 12.195Z" fill="#FF005C"/>
<path d="M12.0613 22.7602C10.7043 22.7553 9.85832 21.2868 10.5349 20.1104L11.2185 18.9221C11.5339 18.3736 12.1184 18.0356 12.7512 18.0356H21.9616C22.5842 18.0356 23.1609 18.363 23.48 18.8976L24.2119 20.1241C24.9167 21.3051 24.0625 22.8033 22.6872 22.7983L12.0613 22.7602Z" fill="#FF005C"/>
<path d="M34.7929 6.89661V21.1539H31.2618V6.89661H25.8154V4.14414H40.2512V6.89661H34.7929Z" fill="#28282E"/>
<path d="M45.6975 14.6953V21.1539H42.1664V4.14414H50.5932C52.6042 4.14414 54.1563 4.58277 55.2495 5.46001C56.3428 6.32921 56.8894 7.5807 56.8894 9.21447C56.8894 10.4056 56.5542 11.4358 55.8839 12.305C55.2136 13.1661 54.3079 13.7335 53.1668 14.0071L57.7273 21.1539H53.7533L49.8391 14.6953H45.6975ZM53.3343 9.35934C53.3343 8.54648 53.075 7.93482 52.5563 7.52436C52.0376 7.11391 51.2595 6.90868 50.2221 6.90868H45.6975V11.9307H50.3179C51.3074 11.9307 52.0575 11.7054 52.5683 11.2547C53.079 10.804 53.3343 10.1722 53.3343 9.35934Z" fill="#28282E"/>
<path d="M63.413 4.14414V21.1539H59.8819V4.14414H63.413Z" fill="#28282E"/>
<path d="M83.1036 12.5705C83.1036 14.3411 82.7485 15.8904 82.0383 17.2184C81.336 18.5382 80.3425 19.5644 79.0577 20.2968C77.7809 21.0291 76.2807 21.3953 74.557 21.3953C72.7935 21.3953 71.2773 21.0412 70.0085 20.333C68.7397 19.6167 67.7661 18.5986 67.0878 17.2787C66.4095 15.9588 66.0704 14.3894 66.0704 12.5705C66.0704 10.7517 66.4055 9.19435 67.0758 7.8986C67.7541 6.60285 68.7277 5.61293 69.9965 4.92884C71.2733 4.2367 72.8014 3.89062 74.581 3.89062C76.3685 3.89062 77.8967 4.24072 79.1655 4.94091C80.4343 5.63305 81.4078 6.62699 82.0861 7.92275C82.7644 9.2185 83.1036 10.7678 83.1036 12.5705ZM79.5006 12.5705C79.5006 10.7356 79.0697 9.29898 78.2079 8.26077C77.346 7.21451 76.1371 6.69138 74.581 6.69138C73.0009 6.69138 71.78 7.21048 70.9182 8.2487C70.0563 9.27886 69.6254 10.7195 69.6254 12.5705C69.6254 13.81 69.8249 14.8804 70.2239 15.7818C70.6229 16.6832 71.1895 17.3793 71.9237 17.8703C72.6658 18.3531 73.5436 18.5946 74.557 18.5946C76.1371 18.5946 77.354 18.0715 78.2079 17.0252C79.0697 15.9789 79.5006 14.4941 79.5006 12.5705Z" fill="#28282E"/>
</svg>
